<?xml version="1.0" encoding="UTF-8"?>
<svg width="50px" height="50px" viewBox="0 0 50 50" version="1.1" xmlns="http://www.w3.org/2000/svg" xmlns:xlink="http://www.w3.org/1999/xlink">
    <!-- Generator: Sketch 47.1 (45422) - http://www.bohemiancoding.com/sketch -->
    <title>Artboard</title>
    <desc>Created with Sketch.</desc>
    <defs></defs>
    <g id="Page-1" stroke="none" stroke-width="1" fill="none" fill-rule="evenodd">
        <g id="Artboard" fill-rule="nonzero" fill="#6A6E7C">
            <path d="M19.3603473,25.6298077 L18.0448625,27.0865385 C17.6801737,26.0961538 17.4978292,25.0673077 17.4978292,24 L17.4978292,22.1538462 C17.4978292,21.9038462 17.5803184,21.6875 17.7452967,21.5048077 C17.910275,21.3221154 18.105644,21.2307692 18.3314038,21.2307692 C18.5571635,21.2307692 18.7525326,21.3221154 18.9175109,21.5048077 C19.0824891,21.6875 19.1649783,21.9038462 19.1649783,22.1538462 L19.1649783,24 C19.1649783,24.5096154 19.2301013,25.0528846 19.3603473,25.6298077 Z M33.869754,16.9471154 L29.1678726,22.1538462 L29.1678726,24 C29.1678726,25.2692308 28.7597685,26.3557692 27.9435601,27.2596154 C27.1273517,28.1634615 26.146165,28.6153846 25,28.6153846 C24.5224313,28.6153846 24.0492041,28.5240385 23.5803184,28.3413462 L22.3299566,29.7259615 C23.1722142,30.2163462 24.0622287,30.4615385 25,30.4615385 C26.6063676,30.4615385 27.9804631,29.8293269 29.1222865,28.5649038 C30.26411,27.3004808 30.8350217,25.7788462 30.8350217,24 L30.8350217,22.1538462 C30.8350217,21.9038462 30.9175109,21.6875 31.0824891,21.5048077 C31.2474674,21.3221154 31.4428365,21.2307692 31.6685962,21.2307692 C31.894356,21.2307692 32.089725,21.3221154 32.2547033,21.5048077 C32.4196816,21.6875 32.5021708,21.9038462 32.5021708,22.1538462 L32.5021708,24 C32.5021708,26.125 31.8617945,27.9735577 30.581042,29.5456731 C29.3002894,31.1177885 27.7178003,32.0192308 25.8335745,32.25 L25.8335745,34.1538462 L29.1678726,34.1538462 C29.3936324,34.1538462 29.5890014,34.2451923 29.7539797,34.4278846 C29.918958,34.6105769 30.0014472,34.8269231 30.0014472,35.0769231 C30.0014472,35.3269231 29.918958,35.5432692 29.7539797,35.7259615 C29.5890014,35.9086538 29.3936324,36 29.1678726,36 L20.8321274,36 C20.6063676,36 20.4109986,35.9086538 20.2460203,35.7259615 C20.081042,35.5432692 19.9985528,35.3269231 19.9985528,35.0769231 C19.9985528,34.8269231 20.081042,34.6105769 20.2460203,34.4278846 C20.4109986,34.2451923 20.6063676,34.1538462 20.8321274,34.1538462 L24.1664255,34.1538462 L24.1664255,32.25 C23.081042,32.125 22.0607815,31.7355769 21.105644,31.0817308 L17.7973951,34.7451923 C17.7105644,34.8413462 17.6107091,34.8894231 17.4978292,34.8894231 C17.3849493,34.8894231 17.2850941,34.8413462 17.1982634,34.7451923 L16.130246,33.5625 C16.0434153,33.4663462 16,33.3557692 16,33.2307692 C16,33.1057692 16.0434153,32.9951923 16.130246,32.8990385 L32.2026049,15.1009615 C32.2894356,15.0048077 32.3892909,14.9567308 32.5021708,14.9567308 C32.6150507,14.9567308 32.7149059,15.0048077 32.8017366,15.1009615 L33.869754,16.2836538 C33.9565847,16.3798077 34,16.4903846 34,16.6153846 C34,16.7403846 33.9565847,16.8509615 33.869754,16.9471154 Z M28.9204052,15.0432692 L20.8321274,24 L20.8321274,16.6153846 C20.8321274,15.3461538 21.2402315,14.2596154 22.0564399,13.3557692 C22.8726483,12.4519231 23.853835,12 25,12 C25.8856729,12 26.686686,12.2836538 27.4030391,12.8509615 C28.1193922,13.4182692 28.6251809,14.1490385 28.9204052,15.0432692 Z" id="Shape"></path>
        </g>
    </g>
</svg>