<?xml version="1.0" encoding="UTF-8" standalone="no"?>
<svg width="31px" height="28px" viewBox="0 0 31 28" version="1.1" xmlns="http://www.w3.org/2000/svg" xmlns:xlink="http://www.w3.org/1999/xlink">
    <!-- Generator: Sketch 42 (36781) - http://www.bohemiancoding.com/sketch -->
    <title>Artboard</title>
    <desc>Created with Sketch.</desc>
    <defs></defs>
    <g id="Page-1" stroke="none" stroke-width="1" fill="none" fill-rule="evenodd">
        <g id="Artboard" fill-rule="nonzero" fill="#FFFFFF">
            <g id="icons" transform="translate(7.000000, 6.000000)">
                <path d="M11.9,8.5 L16.2714286,4.12857143 C17.2428571,3.15714286 17.2428571,1.7 16.2714286,0.728571429 C15.3,-0.242857143 13.8428571,-0.242857143 12.8714286,0.728571429 L8.5,5.1 L4.12857143,0.728571429 C3.15714286,-0.242857143 1.7,-0.242857143 0.728571429,0.728571429 C-0.242857143,1.7 -0.242857143,3.15714286 0.728571429,4.12857143 L5.1,8.5 L0.728571429,12.8714286 C-0.242857143,13.8428571 -0.242857143,15.3 0.728571429,16.2714286 C1.21428571,16.7571429 1.82142857,17 2.42857143,17 C3.03571429,17 3.64285714,16.7571429 4.12857143,16.2714286 L8.5,11.9 L12.8714286,16.2714286 C13.3571429,16.7571429 13.9642857,17 14.5714286,17 C15.1785714,17 15.7857143,16.7571429 16.2714286,16.2714286 C17.2428571,15.3 17.2428571,13.8428571 16.2714286,12.8714286 L11.9,8.5 Z" id="exit"></path>
            </g>
        </g>
    </g>
</svg>