<?xml version="1.0" encoding="UTF-8"?>
<svg width="74px" height="74px" viewBox="0 0 74 74" version="1.1" xmlns="http://www.w3.org/2000/svg" xmlns:xlink="http://www.w3.org/1999/xlink">
    <defs></defs>
    <g id="Page-1" stroke="none" stroke-width="1" fill="none" fill-rule="evenodd">
        <g id="Artboard" fill-rule="nonzero" fill="#FFFFFF">
            <path d="M25.9244343,18.8173307 L25.9244343,12.586 C25.9244343,8.396 29.3204343,5 33.5104343,5 L38.0594343,5 C42.2504343,5 45.6464343,8.396 45.6464343,12.586 L45.6464343,36.5750992 L48.3974343,39.0521108 L48.3974343,30.987 C48.4034343,30.554 48.5104343,28.874 49.7704343,28.874 L50.0794343,28.874 C50.0794343,28.874 51.3354343,28.93 51.3354343,30.424 L51.3354343,40.117 C51.3354343,40.6239941 51.3039056,41.1236123 51.2427026,41.6140018 L60.1462163,49.6307615 C60.5566438,50.0003122 60.5897811,50.6326094 60.2202305,51.043037 L60.095431,51.1816408 L60.095431,51.1816408 C59.7258804,51.5920684 59.0935831,51.6252057 58.6831556,51.2556551 L13.3308779,10.4202808 C12.9204504,10.0507302 12.8873131,9.41843296 13.2568637,9.0080054 L13.3816632,8.86940153 L13.3816632,8.86940153 C13.7512138,8.45897397 14.3835111,8.42583668 14.7939386,8.79538731 L14.7939386,8.79538731 L25.9244343,18.8173307 Z M25.9244343,23.4757498 L45.1756597,40.809631 C44.1042494,43.699634 41.3222831,45.759 38.0594343,45.759 L33.5104343,45.759 C29.3194343,45.759 25.9234343,42.363 25.9244343,38.173 L25.9244343,23.4757498 Z M50.1591864,45.2968186 C48.2286354,49.3103417 44.124291,52.08 39.3734343,52.08 L37.6174343,52.08 L37.6174343,63.235 C37.6174343,64.417 38.2124343,64.7 38.6244343,64.753 L40.1224343,64.753 C40.1224343,64.753 42.1534343,64.706 42.1534343,66.507 L42.1534343,67.245 C42.1354343,67.693 41.9194343,68.798 40.1944343,68.798 L31.3514343,68.798 C29.5714343,68.798 29.4234343,67.435 29.4144343,67.056 L29.4144343,66.388 C29.4144343,64.681 31.2084343,64.753 31.2084343,64.753 L32.5124343,64.753 C33.8214343,64.741 33.9444343,63.704 33.9504343,63.368 L33.9504343,52.081 L32.1964343,52.081 C25.5914343,52.081 20.2334343,46.725 20.2334343,40.118 L20.2334343,30.781 C20.2334343,29.228 20.9894343,28.922 21.4424343,28.875 L21.7734343,28.875 C21.7734343,28.875 23.1704343,28.813 23.1704343,30.472 L23.1704343,39.104 C23.1704343,44.465 27.5174343,48.809 32.8744343,48.809 L38.6944343,48.809 C42.6742143,48.809 46.0942152,46.4132559 47.5909855,42.9844001 L50.1591864,45.2968186 Z" id="Combined-Shape"></path>
        </g>
    </g>
</svg>