<?xml version="1.0" encoding="UTF-8" standalone="no"?>
<svg width="31px" height="28px" viewBox="0 0 31 28" version="1.1" xmlns="http://www.w3.org/2000/svg" xmlns:xlink="http://www.w3.org/1999/xlink">
    <!-- Generator: Sketch 42 (36781) - http://www.bohemiancoding.com/sketch -->
    <title>Artboard</title>
    <desc>Created with Sketch.</desc>
    <defs></defs>
    <g id="Page-1" stroke="none" stroke-width="1" fill="none" fill-rule="evenodd">
        <g id="Artboard" fill-rule="nonzero" fill="#FFFFFF">
            <path d="M5.343,6.465 C5.247,6.369 5.14,6.304 4.98,6.319 C4.844,6.321 4.715,6.379 4.623,6.479 C3.637,7.54 2.999,10.492 2.999,14.001 C2.999,17.854 3.81,22.001 5.59,22.001 L18.499,22.001 C18.952,22.001 19.378,21.787 19.67,21.413 C19.825,21.214 19.808,20.93 19.629,20.752 L5.343,6.465 Z M26.854,25.147 L20.161,18.454 L26.252,21.934 C26.329,21.979 26.415,22.001 26.5,22.001 C26.587,22.001 26.673,21.979 26.751,21.934 C26.905,21.844 27,21.68 27,21.501 L27,6.501 C27,6.323 26.905,6.158 26.751,6.068 C26.597,5.979 26.407,5.978 26.252,6.067 L20,9.639 L20,7.501 C20,6.674 19.327,6.001 18.5,6.001 L7.707,6.001 L3.853,2.147 C3.658,1.952 3.341,1.952 3.146,2.147 C2.951,2.342 2.951,2.659 3.146,2.854 L26.146,25.854 C26.244,25.952 26.372,26 26.5,26 C26.628,26 26.756,25.951 26.854,25.854 C27.049,25.659 27.049,25.342 26.854,25.147 Z" id="Shape"></path>
        </g>
    </g>
</svg>