<?xml version="1.0" encoding="UTF-8" standalone="no"?>
<svg width="31px" height="28px" viewBox="0 0 31 28" version="1.1" xmlns="http://www.w3.org/2000/svg" xmlns:xlink="http://www.w3.org/1999/xlink">
    <!-- Generator: Sketch 42 (36781) - http://www.bohemiancoding.com/sketch -->
    <title>Artboard</title>
    <desc>Created with Sketch.</desc>
    <defs></defs>
    <g id="Page-1" stroke="none" stroke-width="1" fill="none" fill-rule="evenodd">
        <g id="Artboard" fill-rule="nonzero" fill="#FFFFFF">
            <path d="M8.97947489,6.07578297 C8.88347489,5.97978297 5.38192078,6.06078297 5.22192078,6.07578297 C5.08592078,6.07778297 4.716,6.37825211 4.624,6.47825211 C3.638,7.53925211 3,10.4912521 3,14.0002521 C3,17.8532521 3.811,22.0002521 5.591,22.0002521 L18.5,22.0002521 C18.953,22.0002521 19.9765454,22.0801313 19.9765454,21.1867215 L19.9765454,16.3675849 L8.97947489,6.07578297 Z M20.162,18.4532521 L26.253,21.9332521 C26.33,21.9782521 26.416,22.0002521 26.501,22.0002521 C26.588,22.0002521 26.674,21.9782521 26.752,21.9332521 C26.906,21.8432521 27.001,21.6792521 27.001,21.5002521 L27.001,6.50025211 C27.001,6.32225211 26.906,6.15725211 26.752,6.06725211 C26.598,5.97825211 26.408,5.97725211 26.253,6.06625211 L20.001,9.63825211 L20.001,7.50025211 C20.001,6.67325211 19.328,6.00025211 18.501,6.00025211 L7.708,6.00025211 L20.162,18.4532521 Z" id="Shape"></path>
        </g>
    </g>
</svg>