<?xml version="1.0" encoding="UTF-8"?>
<svg width="50px" height="50px" viewBox="0 0 50 50" version="1.1" xmlns="http://www.w3.org/2000/svg" xmlns:xlink="http://www.w3.org/1999/xlink">
    <!-- Generator: Sketch 47.1 (45422) - http://www.bohemiancoding.com/sketch -->
    <title>Artboard</title>
    <desc>Created with Sketch.</desc>
    <defs></defs>
    <g id="Page-1" stroke="none" stroke-width="1" fill="none" fill-rule="evenodd">
        <g id="if_icon-pause_211871" transform="translate(34.000000, 13.000000)"></g>
        <g id="Artboard" fill-rule="nonzero" fill="#6A6E7C">
            <g id="if_icon-pause_211871" transform="translate(18.000000, 15.000000)">
                <path d="M5,19.3645833 L5,0.630208333 C5,0.28125 4.71875,0 4.36458333,0 L0.635416667,0 C0.28125,0 0,0.28125 0,0.630208333 L0,19.3645833 C0,19.7135417 0.28125,20 0.635416667,20 L4.36458333,20 C4.71875,20 5,19.71875 5,19.3645833 Z" id="Shape"></path>
                <path d="M12.3645833,0 L8.63541667,0 C8.28645833,0 8,0.28125 8,0.630208333 L8,19.3645833 C8,19.7135417 8.28125,20 8.63541667,20 L12.3645833,20 C12.7135417,20 13,19.71875 13,19.3645833 L13,0.630208333 C13,0.28125 12.71875,0 12.3645833,0 Z" id="Shape"></path>
            </g>
        </g>
    </g>
</svg>