<?xml version="1.0" encoding="UTF-8"?>
<svg width="74px" height="74px" viewBox="0 0 74 74" version="1.1" xmlns="http://www.w3.org/2000/svg" xmlns:xlink="http://www.w3.org/1999/xlink">
    <!-- Generator: Sketch 47.1 (45422) - http://www.bohemiancoding.com/sketch -->
    <title>Artboard</title>
    <desc>Created with Sketch.</desc>
    <defs></defs>
    <g id="Page-1" stroke="none" stroke-width="1" fill="none" fill-rule="evenodd">
        <g id="Artboard" fill-rule="nonzero" fill="#FFFFFF">
            <path d="M33.277,45.759 C29.086,45.759 25.69,42.363 25.691,38.173 L25.691,12.586 C25.691,8.396 29.087,5 33.277,5 L37.826,5 C42.017,5 45.413,8.396 45.413,12.586 L45.413,38.173 C45.413,42.363 42.016,45.759 37.826,45.759 L33.277,45.759 Z M49.846,28.874 C49.846,28.874 51.102,28.93 51.102,30.424 L51.102,40.117 C51.102,46.725 45.746,52.08 39.14,52.08 L37.384,52.08 L37.384,63.235 C37.384,64.417 37.979,64.7 38.391,64.753 L39.889,64.753 C39.889,64.753 41.92,64.706 41.92,66.507 L41.92,67.245 C41.902,67.693 41.686,68.798 39.961,68.798 L31.118,68.798 C29.338,68.798 29.19,67.435 29.181,67.056 L29.181,66.388 C29.181,64.681 30.975,64.753 30.975,64.753 L32.279,64.753 C33.588,64.741 33.711,63.704 33.717,63.368 L33.717,52.081 L31.963,52.081 C25.358,52.081 20,46.725 20,40.118 L20,30.781 C20,29.228 20.756,28.922 21.209,28.875 L21.54,28.875 C21.54,28.875 22.937,28.813 22.937,30.472 L22.937,39.104 C22.937,44.465 27.284,48.809 32.641,48.809 L38.461,48.809 C43.82,48.809 48.164,44.465 48.164,39.104 L48.164,30.987 C48.17,30.554 48.277,28.874 49.537,28.874 L49.846,28.874 Z" id="Combined-Shape"></path>
        </g>
    </g>
</svg>